<svg xmlns="http://www.w3.org/2000/svg" viewBox="0 0 1500 850" width="1500" height="850">
<rect x="0" y="0" width="1500" height="850" fill="url(#bgGrad)"/>

<defs>
  <marker id="arrowhead" markerWidth="10" markerHeight="8" refX="9" refY="4" orient="auto">
    <polygon points="0,0 10,4 0,8" fill="context-stroke"/>
  </marker>
  <linearGradient id="bgGrad" x1="0%" y1="0%" x2="0%" y2="100%">
    <stop offset="0%" stop-color="#F5F7FB"/>
    <stop offset="100%" stop-color="#E7ECF6"/>
  </linearGradient>
  <linearGradient id="platformGrad" x1="0%" y1="0%" x2="100%" y2="100%">
    <stop offset="0%" stop-color="#16224A"/>
    <stop offset="100%" stop-color="#0D1633"/>
  </linearGradient>
</defs>


<text x="760" y="40" text-anchor="middle" font-family="Segoe UI, Arial, sans-serif" font-size="25" font-weight="800" fill="#0D2461">TAO Discovery Platform — Architecture</text>
<text x="760" y="63" text-anchor="middle" font-family="Segoe UI, Arial, sans-serif" font-size="13.5" fill="#4A5568">Agentless vSphere discovery &amp; dependency mapping appliance</text>

<polygon points="552.7,188.6 938.2,411.2 545.4,638.0 159.8,415.4" fill="url(#platformGrad)" stroke="#0D2461" stroke-width="2"/><text x="167.8" y="401.4" text-anchor="start" font-family="Segoe UI, Arial, sans-serif" font-size="13" font-weight="800" fill="#FFFFFF" letter-spacing="0.5">TAO-DISCOVERY-APPLIANCE</text><text x="167.8" y="417.4" text-anchor="start" font-family="Segoe UI, Arial, sans-serif" font-size="11" fill="#AFC0E8">Photon OS 5.0 VM boundary</text><polygon points="672.7,117.2 629.1,142.4 629.1,104.6 672.7,79.4" fill="#94A3B8" stroke="#0A1233" stroke-width="1.2"/>
<polygon points="629.1,142.4 687.3,176.0 687.3,138.2 629.1,104.6" fill="#B7C2D0" stroke="#0A1233" stroke-width="1.2"/>
<polygon points="672.7,79.4 730.9,113.0 687.3,138.2 629.1,104.6" fill="#CBD5E0" stroke="#0A1233" stroke-width="1.2"/><text x="680.0" y="84.8" text-anchor="middle" font-family="Segoe UI, Arial, sans-serif" font-size="13" font-weight="700" fill="#0D1B3E" stroke="none" stroke-width="3" paint-order="stroke fill">Consultant</text>
<text x="680.0" y="100.8" text-anchor="middle" font-family="Segoe UI, Arial, sans-serif" font-size="10.5" fill="#0D1B3E" opacity="0.9" stroke="none" stroke-width="2.5" paint-order="stroke fill">Browser (HTTPS)</text><polygon points="880.0,194.9 836.4,220.1 836.4,178.1 880.0,152.9" fill="#081538" stroke="#0A1233" stroke-width="1.2"/>
<polygon points="836.4,220.1 901.9,257.9 901.9,215.9 836.4,178.1" fill="#0A1C4D" stroke="#0A1233" stroke-width="1.2"/>
<polygon points="880.0,152.9 945.5,190.7 901.9,215.9 836.4,178.1" fill="#0D2461" stroke="#0A1233" stroke-width="1.2"/><text x="890.9" y="160.4" text-anchor="middle" font-family="Segoe UI, Arial, sans-serif" font-size="13" font-weight="700" fill="#FFFFFF" stroke="#0A1233" stroke-width="3" paint-order="stroke fill">vCenter Server</text>
<text x="890.9" y="176.4" text-anchor="middle" font-family="Segoe UI, Arial, sans-serif" font-size="10.5" fill="#FFFFFF" opacity="0.9" stroke="#0A1233" stroke-width="2.5" paint-order="stroke fill">pyVmomi API :443</text><polygon points="978.2,346.1 952.8,360.8 952.8,339.8 978.2,325.1" fill="#006B93" stroke="#0A1233" stroke-width="1.2"/>
<polygon points="952.8,360.8 978.2,375.5 978.2,354.5 952.8,339.8" fill="#0083AE" stroke="#0A1233" stroke-width="1.2"/>
<polygon points="978.2,325.1 1003.7,339.8 978.2,354.5 952.8,339.8" fill="#0099CC" stroke="#0A1233" stroke-width="1.2"/><polygon points="1011.0,365.0 985.5,379.7 985.5,356.6 1011.0,341.9" fill="#006B93" stroke="#0A1233" stroke-width="1.2"/>
<polygon points="985.5,379.7 1011.0,394.4 1011.0,371.3 985.5,356.6" fill="#0083AE" stroke="#0A1233" stroke-width="1.2"/>
<polygon points="1011.0,341.9 1036.4,356.6 1011.0,371.3 985.5,356.6" fill="#0099CC" stroke="#0A1233" stroke-width="1.2"/><polygon points="1043.7,383.9 1018.2,398.6 1018.2,373.4 1043.7,358.7" fill="#006B93" stroke="#0A1233" stroke-width="1.2"/>
<polygon points="1018.2,398.6 1043.7,413.3 1043.7,388.1 1018.2,373.4" fill="#0083AE" stroke="#0A1233" stroke-width="1.2"/>
<polygon points="1043.7,358.7 1069.2,373.4 1043.7,388.1 1018.2,373.4" fill="#0099CC" stroke="#0A1233" stroke-width="1.2"/><polygon points="1076.4,402.8 1051.0,417.5 1051.0,390.2 1076.4,375.5" fill="#006B93" stroke="#0A1233" stroke-width="1.2"/>
<polygon points="1051.0,417.5 1076.4,432.2 1076.4,404.9 1051.0,390.2" fill="#0083AE" stroke="#0A1233" stroke-width="1.2"/>
<polygon points="1076.4,375.5 1101.9,390.2 1076.4,404.9 1051.0,390.2" fill="#0099CC" stroke="#0A1233" stroke-width="1.2"/><text x="1027.3" y="345.6" text-anchor="middle" font-family="Segoe UI, Arial, sans-serif" font-size="13" font-weight="700" fill="#0D1B3E">ESXi Hosts</text><text x="1027.3" y="361.6" text-anchor="middle" font-family="Segoe UI, Arial, sans-serif" font-size="10.5" fill="#4A5568">vDS NetFlow export</text><polygon points="545.4,222.2 505.4,245.3 505.4,203.3 545.4,180.2" fill="#173E8C" stroke="#0A1233" stroke-width="1.2"/>
<polygon points="505.4,245.3 567.2,281.0 567.2,239.0 505.4,203.3" fill="#1F52AD" stroke="#0A1233" stroke-width="1.2"/>
<polygon points="545.4,180.2 607.2,215.9 567.2,239.0 505.4,203.3" fill="#2B6BE0" stroke="#0A1233" stroke-width="1.2"/><text x="556.3" y="185.6" text-anchor="middle" font-family="Segoe UI, Arial, sans-serif" font-size="13" font-weight="700" fill="#FFFFFF" stroke="#0A1233" stroke-width="3" paint-order="stroke fill">Flask Web UI</text>
<text x="556.3" y="201.6" text-anchor="middle" font-family="Segoe UI, Arial, sans-serif" font-size="10.5" fill="#FFFFFF" opacity="0.9" stroke="#0A1233" stroke-width="2.5" paint-order="stroke fill">Port 8443</text><polygon points="641.8,277.9 601.8,300.9 601.8,258.9 641.8,235.9" fill="#0A337A" stroke="#0A1233" stroke-width="1.2"/>
<polygon points="601.8,300.9 674.5,342.9 674.5,300.9 601.8,258.9" fill="#0D4099" stroke="#0A1233" stroke-width="1.2"/>
<polygon points="641.8,235.9 714.5,277.8 674.5,300.9 601.8,258.9" fill="#1155CC" stroke="#0A1233" stroke-width="1.2"/><text x="658.2" y="244.4" text-anchor="middle" font-family="Segoe UI, Arial, sans-serif" font-size="13" font-weight="700" fill="#FFFFFF" stroke="#0A1233" stroke-width="3" paint-order="stroke fill">Engine</text>
<text x="658.2" y="260.4" text-anchor="middle" font-family="Segoe UI, Arial, sans-serif" font-size="10.5" fill="#FFFFFF" opacity="0.9" stroke="#0A1233" stroke-width="2.5" paint-order="stroke fill">inventory + netflow_mgr</text><polygon points="780.0,357.6 740.0,380.8 740.0,338.8 780.0,315.6" fill="#00566B" stroke="#0A1233" stroke-width="1.2"/>
<polygon points="740.0,380.8 812.7,422.8 812.7,380.8 740.0,338.8" fill="#006B86" stroke="#0A1233" stroke-width="1.2"/>
<polygon points="780.0,315.6 852.8,357.6 812.7,380.8 740.0,338.8" fill="#0099CC" stroke="#0A1233" stroke-width="1.2"/><text x="796.4" y="324.2" text-anchor="middle" font-family="Segoe UI, Arial, sans-serif" font-size="13" font-weight="700" fill="#FFFFFF" stroke="#0A1233" stroke-width="3" paint-order="stroke fill">IPFIX Listener</text>
<text x="796.4" y="340.2" text-anchor="middle" font-family="Segoe UI, Arial, sans-serif" font-size="10.5" fill="#FFFFFF" opacity="0.9" stroke="#0A1233" stroke-width="2.5" paint-order="stroke fill">UDP Port 4739</text><polygon points="356.3,337.7 327.2,354.5 327.2,325.1 356.3,308.3" fill="#02513B" stroke="#0A1233" stroke-width="1.2"/>
<polygon points="327.2,354.5 378.1,383.9 378.1,354.5 327.2,325.1" fill="#036548" stroke="#0A1233" stroke-width="1.2"/>
<polygon points="356.3,308.3 407.2,337.7 378.1,354.5 327.2,325.1" fill="#059669" stroke="#0A1233" stroke-width="1.2"/><text x="367.2" y="307.4" text-anchor="middle" font-family="Segoe UI, Arial, sans-serif" font-size="13" font-weight="700" fill="#FFFFFF" stroke="#0A1233" stroke-width="3" paint-order="stroke fill">SQLite DB</text>
<text x="367.2" y="323.4" text-anchor="middle" font-family="Segoe UI, Arial, sans-serif" font-size="10.5" fill="#FFFFFF" opacity="0.9" stroke="#0A1233" stroke-width="2.5" paint-order="stroke fill">discovery.db</text><polygon points="498.1,419.6 469.0,436.4 469.0,407.0 498.1,390.2" fill="#7A4204" stroke="#0A1233" stroke-width="1.2"/>
<polygon points="469.0,436.4 527.2,470.0 527.2,440.6 469.0,407.0" fill="#985405" stroke="#0A1233" stroke-width="1.2"/>
<polygon points="498.1,390.2 556.3,423.8 527.2,440.6 469.0,407.0" fill="#D97706" stroke="#0A1233" stroke-width="1.2"/><text x="512.7" y="391.4" text-anchor="middle" font-family="Segoe UI, Arial, sans-serif" font-size="13" font-weight="700" fill="#FFFFFF" stroke="#0A1233" stroke-width="3" paint-order="stroke fill">Report Generator</text>
<text x="512.7" y="407.4" text-anchor="middle" font-family="Segoe UI, Arial, sans-serif" font-size="10.5" fill="#FFFFFF" opacity="0.9" stroke="#0A1233" stroke-width="2.5" paint-order="stroke fill">openpyxl</text><polygon points="396.3,486.8 367.2,503.6 367.2,480.5 396.3,463.7" fill="#02513B" stroke="#0A1233" stroke-width="1.2"/>
<polygon points="367.2,503.6 410.8,528.8 410.8,505.7 367.2,480.5" fill="#036548" stroke="#0A1233" stroke-width="1.2"/>
<polygon points="396.3,463.7 439.9,488.9 410.8,505.7 367.2,480.5" fill="#059669" stroke="#0A1233" stroke-width="1.2"/><text x="403.5" y="460.7" text-anchor="middle" font-family="Segoe UI, Arial, sans-serif" font-size="13" font-weight="700" fill="#0D1B3E" stroke="none" stroke-width="3" paint-order="stroke fill">Excel Report</text>
<text x="403.5" y="476.7" text-anchor="middle" font-family="Segoe UI, Arial, sans-serif" font-size="10.5" fill="#0D1B3E" opacity="0.9" stroke="none" stroke-width="2.5" paint-order="stroke fill">.xlsx</text><line x1="680.0" y1="108.8" x2="576.3" y2="217.0" stroke="#2B6BE0" stroke-width="2.2" marker-end="url(#arrowhead)"/>
<rect x="588.1" y="140.9" width="120" height="16" fill="#FFFFFF" opacity="0.9" rx="3"/>
<text x="648.1" y="152.9" text-anchor="middle" font-family="Consolas, monospace" font-size="10.5" fill="#2B6BE0">HTTPS 8443</text><line x1="550.9" y1="250.6" x2="621.8" y2="268.4" stroke="#173E8C" stroke-width="1.6" marker-end="url(#arrowhead)"/><line x1="701.8" y1="287.3" x2="869.1" y2="218.0" stroke="#0D2461" stroke-width="2.2" stroke-dasharray="4,3" marker-end="url(#arrowhead)"/>
<rect x="755.5" y="234.6" width="120" height="16" fill="#FFFFFF" opacity="0.9" rx="3"/>
<text x="815.5" y="246.6" text-anchor="middle" font-family="Consolas, monospace" font-size="10.5" fill="#0D2461">pyVmomi 443</text><line x1="1012.8" y1="380.8" x2="816.4" y2="355.5" stroke="#0099CC" stroke-width="2.2" stroke-dasharray="4,3" marker-end="url(#arrowhead)"/>
<rect x="864.6" y="342.1" width="120" height="16" fill="#FFFFFF" opacity="0.9" rx="3"/>
<text x="924.6" y="354.1" text-anchor="middle" font-family="Consolas, monospace" font-size="10.5" fill="#0099CC">IPFIX/UDP 4739</text><line x1="620.0" y1="298.8" x2="381.7" y2="337.7" stroke="#059669" stroke-width="1.6" marker-end="url(#arrowhead)"/>
<rect x="405.8" y="310.3" width="120" height="16" fill="#FFFFFF" opacity="0.9" rx="3"/>
<text x="465.8" y="322.3" text-anchor="middle" font-family="Consolas, monospace" font-size="10.5" fill="#059669">writes</text><line x1="761.8" y1="380.7" x2="381.7" y2="337.7" stroke="#059669" stroke-width="1.6" marker-end="url(#arrowhead)"/><line x1="483.6" y1="413.3" x2="381.7" y2="337.7" stroke="#D97706" stroke-width="1.6" marker-end="url(#arrowhead)"/>
<rect x="372.6" y="381.5" width="120" height="16" fill="#FFFFFF" opacity="0.9" rx="3"/>
<text x="432.6" y="393.5" text-anchor="middle" font-family="Consolas, monospace" font-size="10.5" fill="#D97706">reads</text><line x1="498.1" y1="442.7" x2="418.1" y2="476.3" stroke="#D97706" stroke-width="1.8" marker-end="url(#arrowhead)"/>
<rect x="438.1" y="447.5" width="120" height="16" fill="#FFFFFF" opacity="0.9" rx="3"/>
<text x="498.1" y="459.5" text-anchor="middle" font-family="Consolas, monospace" font-size="10.5" fill="#D97706">exports</text>

<g font-family="Segoe UI, Arial, sans-serif" font-size="11.5" fill="#4A5568">
  <rect x="60" y="780" width="14" height="14" fill="#2B6BE0"/><text x="80" y="791">Web / control plane</text>
  <rect x="260" y="780" width="14" height="14" fill="#0D2461"/><text x="280" y="791">vCenter API (pyVmomi, TCP 443)</text>
  <rect x="540" y="780" width="14" height="14" fill="#0099CC"/><text x="560" y="791">NetFlow / IPFIX (UDP 4739)</text>
  <rect x="780" y="780" width="14" height="14" fill="#059669"/><text x="800" y="791">Data persistence</text>
  <rect x="970" y="780" width="14" height="14" fill="#D97706"/><text x="990" y="791">Reporting output</text>
</g>

</svg>