<svg xmlns="http://www.w3.org/2000/svg" viewBox="0 0 1400 980" width="1400" height="980">
<rect x="0" y="0" width="1400" height="980" fill="url(#bgGrad)"/>

<defs>
  <marker id="arrowhead" markerWidth="10" markerHeight="8" refX="9" refY="4" orient="auto">
    <polygon points="0,0 10,4 0,8" fill="context-stroke"/>
  </marker>
  <linearGradient id="bgGrad" x1="0%" y1="0%" x2="0%" y2="100%">
    <stop offset="0%" stop-color="#FFFFFF"/>
    <stop offset="100%" stop-color="#F0F4FB"/>
  </linearGradient>
</defs>


<text x="700.0" y="42" text-anchor="middle" font-family="Segoe UI, Arial, sans-serif" font-size="27" font-weight="800" fill="#0D2461">TAO Discovery Platform — Architecture</text>
<text x="700.0" y="66" text-anchor="middle" font-family="Segoe UI, Arial, sans-serif" font-size="14" fill="#4A5568">Agentless vSphere discovery &amp; dependency mapping appliance</text>
<rect x="80" y="113" width="220" height="80" rx="12" fill="#0A1233" opacity="0.15"/>
<rect x="80" y="110" width="220" height="80" rx="12" fill="#64748B" stroke="#0A1233" stroke-width="1.5" opacity="1.0"/>
<text x="190.0" y="144.0" text-anchor="middle" font-family="Segoe UI, Arial, sans-serif" font-size="15" font-weight="700" fill="#FFFFFF">Consultant Browser</text>
<text x="190.0" y="163.0" text-anchor="middle" font-family="Consolas, monospace" font-size="11.5" fill="#FFFFFF" opacity="0.9">HTTPS</text><rect x="590" y="113" width="220" height="80" rx="12" fill="#0A1233" opacity="0.15"/>
<rect x="590" y="110" width="220" height="80" rx="12" fill="#0D2461" stroke="#0A1233" stroke-width="1.5" opacity="1.0"/>
<text x="700.0" y="144.0" text-anchor="middle" font-family="Segoe UI, Arial, sans-serif" font-size="15" font-weight="700" fill="#FFFFFF">vCenter Server</text>
<text x="700.0" y="163.0" text-anchor="middle" font-family="Consolas, monospace" font-size="11.5" fill="#FFFFFF" opacity="0.9">pyVmomi API · TCP 443</text><rect x="1100" y="113" width="220" height="80" rx="12" fill="#0A1233" opacity="0.15"/>
<rect x="1100" y="110" width="220" height="80" rx="12" fill="#0D2461" stroke="#0A1233" stroke-width="1.5" opacity="1.0"/>
<text x="1210.0" y="144.0" text-anchor="middle" font-family="Segoe UI, Arial, sans-serif" font-size="15" font-weight="700" fill="#FFFFFF">ESXi Hosts (x4)</text>
<text x="1210.0" y="163.0" text-anchor="middle" font-family="Consolas, monospace" font-size="11.5" fill="#FFFFFF" opacity="0.9">vDS NetFlow export</text><rect x="40" y="260" width="1320" height="560" rx="18" fill="#F0F4FF" stroke="#2B6BE0" stroke-width="2" stroke-dasharray="8,6"/><rect x="800" y="244" width="300" height="32" rx="8" fill="#0D2461"/><text x="950.0" y="265" text-anchor="middle" font-family="Segoe UI, Arial, sans-serif" font-size="12.5" font-weight="800" fill="#FFFFFF" letter-spacing="0.3">TAO-DISCOVERY-APPLIANCE (Photon OS VM)</text><rect x="100" y="323" width="220" height="90" rx="12" fill="#0A1233" opacity="0.15"/>
<rect x="100" y="320" width="220" height="90" rx="12" fill="#2B6BE0" stroke="#0A1233" stroke-width="1.5" opacity="1.0"/>
<text x="210.0" y="359.0" text-anchor="middle" font-family="Segoe UI, Arial, sans-serif" font-size="15" font-weight="700" fill="#FFFFFF">Flask Web UI</text>
<text x="210.0" y="378.0" text-anchor="middle" font-family="Consolas, monospace" font-size="11.5" fill="#FFFFFF" opacity="0.9">Port 8443</text><rect x="610" y="323" width="260" height="90" rx="12" fill="#0A1233" opacity="0.15"/>
<rect x="610" y="320" width="260" height="90" rx="12" fill="#1155CC" stroke="#0A1233" stroke-width="1.5" opacity="1.0"/>
<text x="740.0" y="359.0" text-anchor="middle" font-family="Segoe UI, Arial, sans-serif" font-size="15" font-weight="700" fill="#FFFFFF">Engine</text>
<text x="740.0" y="378.0" text-anchor="middle" font-family="Consolas, monospace" font-size="11.5" fill="#FFFFFF" opacity="0.9">inventory_collector · netflow_manager</text><rect x="1100" y="323" width="220" height="90" rx="12" fill="#0A1233" opacity="0.15"/>
<rect x="1100" y="320" width="220" height="90" rx="12" fill="#0099CC" stroke="#0A1233" stroke-width="1.5" opacity="1.0"/>
<text x="1210.0" y="359.0" text-anchor="middle" font-family="Segoe UI, Arial, sans-serif" font-size="15" font-weight="700" fill="#FFFFFF">IPFIX Listener</text>
<text x="1210.0" y="378.0" text-anchor="middle" font-family="Consolas, monospace" font-size="11.5" fill="#FFFFFF" opacity="0.9">UDP Port 4739</text><rect x="330" y="523" width="220" height="90" rx="12" fill="#0A1233" opacity="0.15"/>
<rect x="330" y="520" width="220" height="90" rx="12" fill="#059669" stroke="#0A1233" stroke-width="1.5" opacity="1.0"/>
<text x="440.0" y="559.0" text-anchor="middle" font-family="Segoe UI, Arial, sans-serif" font-size="15" font-weight="700" fill="#FFFFFF">SQLite DB</text>
<text x="440.0" y="578.0" text-anchor="middle" font-family="Consolas, monospace" font-size="11.5" fill="#FFFFFF" opacity="0.9">discovery.db</text><rect x="700" y="523" width="260" height="90" rx="12" fill="#0A1233" opacity="0.15"/>
<rect x="700" y="520" width="260" height="90" rx="12" fill="#D97706" stroke="#0A1233" stroke-width="1.5" opacity="1.0"/>
<text x="830.0" y="559.0" text-anchor="middle" font-family="Segoe UI, Arial, sans-serif" font-size="15" font-weight="700" fill="#FFFFFF">Report Generator</text>
<text x="830.0" y="578.0" text-anchor="middle" font-family="Consolas, monospace" font-size="11.5" fill="#FFFFFF" opacity="0.9">openpyxl</text><rect x="700" y="863" width="220" height="80" rx="12" fill="#0A1233" opacity="0.15"/>
<rect x="700" y="860" width="220" height="80" rx="12" fill="#059669" stroke="#0A1233" stroke-width="1.5" opacity="1.0"/>
<text x="810.0" y="894.0" text-anchor="middle" font-family="Segoe UI, Arial, sans-serif" font-size="15" font-weight="700" fill="#FFFFFF">Excel Report</text>
<text x="810.0" y="913.0" text-anchor="middle" font-family="Consolas, monospace" font-size="11.5" fill="#FFFFFF" opacity="0.9">.xlsx workbook</text><line x1="190.0" y1="190" x2="210.0" y2="320" stroke="#2B6BE0" stroke-width="2.4" marker-end="url(#arrowhead)"/>
<rect x="147.0" y="245.0" width="106" height="18" fill="#FFFFFF" stroke="#2B6BE0" stroke-width="1" opacity="0.95" rx="4"/>
<text x="200.0" y="259.0" text-anchor="middle" font-family="Consolas, monospace" font-size="11" fill="#2B6BE0" font-weight="600">HTTPS 8443</text><line x1="700.0" y1="190" x2="740.0" y2="320" stroke="#0D2461" stroke-width="2.4" stroke-dasharray="6,4" marker-end="url(#arrowhead)"/>
<rect x="662.5" y="245.0" width="115" height="18" fill="#FFFFFF" stroke="#0D2461" stroke-width="1" opacity="0.95" rx="4"/>
<text x="720.0" y="259.0" text-anchor="middle" font-family="Consolas, monospace" font-size="11" fill="#0D2461" font-weight="600">pyVmomi 443</text><line x1="1210.0" y1="190" x2="1210.0" y2="320" stroke="#0099CC" stroke-width="2.4" stroke-dasharray="6,4" marker-end="url(#arrowhead)"/>
<rect x="1130.0" y="245.0" width="160" height="18" fill="#FFFFFF" stroke="#0099CC" stroke-width="1" opacity="0.95" rx="4"/>
<text x="1210.0" y="259.0" text-anchor="middle" font-family="Consolas, monospace" font-size="11" fill="#0099CC" font-weight="600">IPFIX / UDP 4739</text><line x1="320" y1="365.0" x2="610" y2="365.0" stroke="#173E8C" stroke-width="2" marker-end="url(#arrowhead)"/>
<rect x="430.0" y="355.0" width="70" height="18" fill="#FFFFFF" stroke="#173E8C" stroke-width="1" opacity="0.95" rx="4"/>
<text x="465.0" y="369.0" text-anchor="middle" font-family="Consolas, monospace" font-size="11" fill="#173E8C" font-weight="600">invoke</text><line x1="700.0" y1="410" x2="470.0" y2="520" stroke="#059669" stroke-width="2.4" marker-end="url(#arrowhead)"/>
<rect x="550.0" y="455.0" width="70" height="18" fill="#FFFFFF" stroke="#059669" stroke-width="1" opacity="0.95" rx="4"/>
<text x="585.0" y="469.0" text-anchor="middle" font-family="Consolas, monospace" font-size="11" fill="#059669" font-weight="600">writes</text><path d="M 1150.0 410 Q 950 460 530.0 520" fill="none" stroke="#059669" stroke-width="2" marker-end="url(#arrowhead)"/><line x1="550" y1="565.0" x2="700" y2="565.0" stroke="#D97706" stroke-width="2.4" marker-end="url(#arrowhead)"/>
<rect x="594.5" y="555.0" width="61" height="18" fill="#FFFFFF" stroke="#D97706" stroke-width="1" opacity="0.95" rx="4"/>
<text x="625.0" y="569.0" text-anchor="middle" font-family="Consolas, monospace" font-size="11" fill="#D97706" font-weight="600">reads</text><line x1="830.0" y1="610" x2="810.0" y2="860" stroke="#D97706" stroke-width="2.6" marker-end="url(#arrowhead)"/>
<rect x="780.5" y="725.0" width="79" height="18" fill="#FFFFFF" stroke="#D97706" stroke-width="1" opacity="0.95" rx="4"/>
<text x="820.0" y="739.0" text-anchor="middle" font-family="Consolas, monospace" font-size="11" fill="#D97706" font-weight="600">exports</text><line x1="130" y1="410" x2="350" y2="520" stroke="#8896A7" stroke-width="1.6" stroke-dasharray="3,4" marker-end="url(#arrowhead)"/>
<rect x="164.5" y="455.0" width="151" height="18" fill="#FFFFFF" stroke="#8896A7" stroke-width="1" opacity="0.95" rx="4"/>
<text x="240.0" y="469.0" text-anchor="middle" font-family="Consolas, monospace" font-size="11" fill="#8896A7" font-weight="600">dashboard reads</text><g font-family="Segoe UI, Arial, sans-serif" font-size="12.5" fill="#4A5568">
<rect x="80" y="930" width="15" height="15" rx="3" fill="#2B6BE0"/>
<text x="102" y="942.5">Web / control plane</text>
<rect x="313" y="930" width="15" height="15" rx="3" fill="#0D2461"/>
<text x="335" y="942.5">vCenter API (pyVmomi, TCP 443)</text>
<rect x="645" y="930" width="15" height="15" rx="3" fill="#0099CC"/>
<text x="667" y="942.5">NetFlow / IPFIX (UDP 4739)</text>
<rect x="941" y="930" width="15" height="15" rx="3" fill="#059669"/>
<text x="963" y="942.5">Data persistence</text>
<rect x="1147" y="930" width="15" height="15" rx="3" fill="#D97706"/>
<text x="1169" y="942.5">Reporting output</text>
</g>
</svg>